# xmcd
#
# Track frame offsets: 
#        150
#        11275
#        27555
#        38092
#        50332
#        62697
#        76327
#        95415
#        107835
#        117462
#        133175
#        146092
#        160105
#        170937
#        183062
#        194075
#        212917
#        226235
#
# Disc length: 3165 seconds
#
# Revision: 0
# Processed by: cddbd v1.5.2PL0 Copyright (c) Steve Scherf et al.
# Submitted via: ExactAudioCopy v0.99pb4
#
DISCID=fe0c5b12
DTITLE=Various Artist - Saa Uskaltaa - Eteenpäin - Vorwärts!
DYEAR=1994
DGENRE=Avantgarde
TTITLE0=Ona Kamu and Agit Jazz Orchestra - Siirtotyöläinen
TTITLE1=Anna Kuoppamäki and Avanti! - Jos Rakastat
TTITLE2=Veeti and Agit Jazz Orchestra - Edistyksen Voima
TTITLE3=Merja Larivaara and Avanti - Oi Rakkaus
TTITLE4=Sami Saari and Agit Jazz Orchestra - Rotestilaulu
TTITLE5=Marjo Leinonen and Agit Jazz Orchestra - Laulu Vankiloista
TTITLE6=Sasu Moilanen& Avanti - Ruusu On Punainen
TTITLE7=Avanti - Purple Haze
TTITLE8=Q-Teatteri - Natalia
TTITLE9=J.Huimapää and Avanti - Puhu Minulle Rakkaudesta
TTITLE10=Heikki Salomaa and Agit Jazz Orchestra - Tango Kauhajoen Kasino
TTITLE10=lla
TTITLE11=Veeti and Agit Jazz Orchestra - Elektroninen X-Taasi
TTITLE12=Ona Kamu and Agit Jazz Orchestra - Kielletyt Käskyt
TTITLE13=Merja Larivaara and Avanti - Ei Puolikasta
TTITLE14=M.A. Numminen - Tietämättömyydessään
TTITLE15=Veeti and Agit Jazz Orchestra - Kasvoton Kuolema
TTITLE16=Anna Kuoppamäki and Avanti - Sinua Sinua Rakastan
TTITLE17=KOM-Teatteri and Agit Jazz Orchestra - Kenen Joukoissa Seisot
EXTD=
EXTT0=
EXTT1=
EXTT2=
EXTT3=
EXTT4=
EXTT5=
EXTT6=
EXTT7=
EXTT8=
EXTT9=
EXTT10=
EXTT11=
EXTT12=
EXTT13=
EXTT14=
EXTT15=
EXTT16=
EXTT17=
PLAYORDER=
